<?xml version="1.0" standalone="no"?>
<!DOCTYPE svg PUBLIC "-//W3C//DTD SVG 20010904//EN"
 "http://www.w3.org/TR/2001/REC-SVG-20010904/DTD/svg10.dtd">
<svg version="1.0" xmlns="http://www.w3.org/2000/svg"
 width="800.000000pt" height="514.000000pt" viewBox="0 0 800.000000 514.000000"
 preserveAspectRatio="xMidYMid meet">
<metadata>
Created by potrace 1.12, written by Peter Selinger 2001-2015
</metadata>
<g transform="translate(0.000000,514.000000) scale(0.100000,-0.100000)"
fill="#000000" stroke="none">
<path d="M1535 5124 c-331 -50 -486 -113 -559 -231 -44 -71 -89 -192 -120
-329 -14 -59 -28 -110 -33 -114 -4 -4 -64 -50 -133 -101 -69 -51 -170 -138
-226 -194 -86 -86 -107 -114 -151 -200 -78 -153 -150 -373 -173 -530 -13 -89
-85 -874 -104 -1145 -39 -533 -45 -1110 -16 -1460 21 -254 78 -387 227 -534
181 -177 364 -261 598 -273 186 -10 315 36 479 168 178 142 274 285 505 747
88 176 137 261 174 305 29 34 60 73 69 86 l17 24 53 -45 c188 -160 353 -216
602 -205 193 8 380 68 534 171 113 75 178 158 276 354 l36 72 410 0 410 0 36
-72 c98 -196 163 -279 276 -354 154 -103 341 -163 534 -171 249 -11 414 45
602 205 l53 45 17 -24 c9 -13 40 -52 69 -86 38 -45 87 -132 184 -324 235 -470
336 -613 539 -764 140 -103 267 -141 439 -132 231 13 414 97 594 273 149 147
206 280 227 534 29 349 23 932 -16 1460 -20 272 -91 1056 -104 1145 -23 157
-95 377 -173 530 -44 86 -65 114 -151 200 -56 56 -157 143 -226 194 -69 51
-128 96 -132 100 -4 3 -23 67 -41 141 -83 327 -163 420 -419 485 -292 73 -550
71 -716 -7 -69 -33 -156 -121 -231 -233 -63 -94 -71 -112 -94 -211 -14 -60
-31 -146 -38 -190 l-12 -82 -1627 0 -1628 0 -6 52 c-12 87 -46 247 -66 302
-25 72 -130 222 -200 287 -102 95 -199 126 -400 132 -74 2 -148 1 -165 -1z
m5115 -871 c199 -64 260 -326 112 -479 -87 -90 -222 -111 -339 -54 -187 92
-217 338 -58 478 79 70 179 89 285 55z m-4980 -323 l0 -179 -58 -68 c-72 -83
-133 -139 -162 -148 -32 -10 -90 34 -177 135 l-73 84 0 172 c0 94 3 174 7 177
3 4 109 7 235 7 l228 0 0 -180z m4305 -315 c121 -59 184 -198 150 -328 -69
-264 -416 -304 -543 -63 -37 70 -38 189 -3 256 79 152 246 209 396 135z m1407
8 c62 -28 115 -78 146 -137 35 -69 38 -189 4 -253 -58 -110 -149 -168 -267
-167 -86 0 -146 25 -205 84 -71 71 -100 167 -80 263 37 182 233 284 402 210z
m-6220 -57 c99 -85 148 -143 148 -177 0 -33 -60 -102 -158 -183 l-69 -56 -172
0 -171 0 0 240 0 240 173 0 174 0 75 -64z m968 -176 l0 -240 -169 0 -169 0
-80 65 c-82 67 -152 147 -152 174 0 29 55 95 140 168 l85 73 173 0 172 0 0
-240z m2663 34 c114 -38 207 -71 207 -74 0 -3 -99 -37 -220 -76 l-220 -71 0
149 c0 116 3 149 13 145 6 -2 105 -35 220 -73z m-1383 -74 l0 -140 -230 0
-230 0 0 140 0 140 230 0 230 0 0 -140z m-1910 -137 c25 -20 73 -69 108 -109
l62 -71 0 -177 0 -176 -235 0 -235 0 0 174 0 174 68 78 c73 84 143 144 170
144 10 0 37 -17 62 -37z m5188 -222 c136 -69 194 -238 132 -379 -43 -99 -155
-172 -264 -172 -192 0 -335 189 -282 372 50 174 252 262 414 179z m-3876 -492
c204 -42 395 -233 437 -437 40 -194 -16 -381 -158 -523 -116 -116 -242 -169
-401 -169 -159 0 -285 53 -401 169 -228 229 -228 573 0 802 81 81 167 131 264
155 66 16 190 17 259 3z m2598 -4 c204 -54 350 -192 412 -390 28 -90 30 -232
4 -320 -72 -244 -298 -415 -551 -415 -253 0 -479 171 -551 415 -26 88 -24 230
4 320 62 198 215 342 414 390 72 18 201 18 268 0z"/>
</g>
</svg>
