<?xml version="1.0" standalone="no"?>
<!DOCTYPE svg PUBLIC "-//W3C//DTD SVG 20010904//EN"
 "http://www.w3.org/TR/2001/REC-SVG-20010904/DTD/svg10.dtd">
<svg version="1.0" xmlns="http://www.w3.org/2000/svg"
 width="512.000000pt" height="512.000000pt" viewBox="0 0 512.000000 512.000000"
 preserveAspectRatio="xMidYMid meet">
<metadata>
Created by potrace 1.12, written by Peter Selinger 2001-2015
</metadata>
<g transform="translate(0.000000,512.000000) scale(0.100000,-0.100000)"
fill="#000000" stroke="none">
<path d="M1070 5115 c-8 -2 -49 -9 -90 -15 -383 -62 -734 -346 -879 -713 -170
-427 -80 -909 232 -1243 190 -204 459 -335 747 -365 230 -23 482 32 692 151
72 41 93 49 100 38 26 -36 89 -180 103 -233 22 -79 21 -250 0 -329 -16 -61
-81 -206 -108 -240 -14 -19 -16 -19 -63 12 -76 48 -210 108 -305 136 -413 119
-850 6 -1154 -299 -411 -412 -459 -1062 -114 -1525 525 -704 1610 -604 1994
184 172 352 159 761 -36 1099 -42 72 -49 91 -38 99 41 27 153 78 214 98 89 28
249 31 344 6 64 -16 210 -81 245 -109 19 -14 19 -16 -12 -63 -201 -314 -237
-726 -95 -1074 132 -322 401 -570 733 -674 408 -129 850 -26 1159 269 213 204
335 456 360 745 47 548 -285 1049 -806 1219 -129 42 -221 55 -373 54 -214 -1
-398 -51 -582 -158 -43 -25 -80 -45 -83 -45 -10 0 -83 157 -105 225 -28 89
-31 248 -6 345 16 64 80 207 109 244 14 19 16 19 63 -11 78 -51 212 -110 305
-137 415 -119 850 -6 1154 299 319 320 425 780 279 1213 -103 309 -367 585
-674 705 -357 140 -771 95 -1088 -118 -288 -192 -476 -510 -513 -866 -24 -233
36 -499 161 -709 22 -38 40 -71 40 -74 0 -11 -155 -84 -225 -106 -88 -27 -258
-30 -349 -5 -61 16 -206 81 -240 108 -19 14 -19 16 12 63 187 292 232 679 118
1012 -141 411 -503 712 -936 778 -83 12 -246 17 -290 9z m382 -128 c400 -104
687 -405 790 -827 8 -35 13 -114 12 -220 -1 -145 -4 -177 -27 -265 -28 -102
-107 -277 -150 -329 l-23 -28 -120 90 c-133 100 -244 195 -414 353 l-115 107
0 86 1 86 69 56 c208 168 345 340 383 477 14 49 1 87 -29 87 -85 0 -286 -182
-433 -393 -68 -97 -94 -126 -105 -121 -153 67 -321 -31 -324 -189 0 -28 3 -61
6 -73 6 -17 -9 -34 -92 -102 -219 -182 -371 -387 -371 -502 0 -51 31 -57 105
-21 105 52 246 196 374 381 85 124 71 114 133 95 33 -9 68 -13 94 -9 l41 6
141 -154 c141 -153 292 -335 371 -448 l42 -60 -48 -30 c-432 -277 -1017 -200
-1364 178 -385 421 -378 1062 15 1470 130 135 261 217 436 276 138 46 207 56
370 51 103 -2 158 -9 232 -28z m2608 13 c420 -51 763 -323 899 -714 150 -427
12 -908 -340 -1190 -88 -70 -240 -153 -339 -184 -190 -61 -413 -68 -605 -18
-101 26 -276 105 -329 149 l-28 23 90 120 c100 133 204 255 357 419 l103 110
86 0 86 -1 56 -69 c170 -210 341 -347 482 -384 126 -34 101 81 -53 248 -67 72
-167 154 -294 241 -50 34 -91 63 -91 64 0 0 7 19 15 41 40 111 -10 226 -124
285 -27 14 -103 18 -142 7 -24 -6 -33 2 -108 92 -148 179 -294 301 -420 351
-99 38 -143 21 -121 -47 33 -100 183 -258 373 -392 63 -45 120 -88 126 -95 7
-8 6 -27 -5 -62 -9 -30 -13 -65 -9 -90 l6 -42 -153 -141 c-153 -140 -335 -291
-448 -370 l-60 -42 -35 56 c-142 221 -196 523 -140 784 85 397 372 705 762
816 141 40 267 51 403 35z m-2615 -2774 c101 -26 277 -106 328 -148 l29 -24
-90 -119 c-99 -132 -201 -253 -357 -420 l-103 -110 -86 0 -86 1 -56 69 c-170
210 -341 347 -482 384 -96 26 -107 -33 -26 -151 62 -91 182 -202 337 -311 96
-68 126 -95 121 -106 -52 -118 -9 -245 99 -300 47 -23 120 -31 164 -17 16 5
35 -12 101 -93 182 -219 387 -371 502 -371 51 0 57 31 21 105 -52 105 -196
246 -381 374 -123 84 -113 70 -95 136 8 33 12 74 9 95 -6 36 -5 38 124 157
210 195 514 439 532 428 15 -9 78 -124 113 -207 122 -282 110 -607 -33 -893
-320 -643 -1180 -791 -1698 -291 -135 130 -218 261 -276 436 -46 138 -60 245
-53 389 24 499 386 913 880 1007 117 22 339 12 462 -20z m2700 0 c468 -100
804 -473 855 -949 20 -183 -14 -379 -95 -553 -54 -116 -109 -198 -197 -290
-128 -134 -262 -219 -438 -278 -500 -166 -1050 57 -1289 524 -94 183 -128 340
-118 549 4 90 13 153 32 221 27 99 107 274 148 324 l23 28 120 -89 c116 -88
288 -236 448 -385 l78 -73 2 -88 2 -87 -61 -47 c-157 -123 -299 -281 -358
-398 -97 -194 -19 -232 166 -80 81 67 174 175 274 318 42 59 76 107 77 107 1
0 19 -7 41 -15 22 -8 58 -14 80 -14 55 -1 137 39 170 83 28 36 58 125 50 149
-20 69 -20 70 84 156 179 148 301 294 351 420 38 99 21 143 -47 121 -100 -33
-258 -183 -392 -373 -45 -63 -88 -120 -95 -126 -8 -7 -27 -6 -61 5 -31 9 -66
12 -91 8 l-41 -6 -119 129 c-154 167 -251 282 -353 418 l-81 110 27 22 c42 34
200 109 282 134 166 50 366 59 526 25z"/>
</g>
</svg>
